<?xml version="1.0" encoding="utf-8"?>
<!-- Generator: Adobe Illustrator 23.0.2, SVG Export Plug-In . SVG Version: 6.00 Build 0)  -->
<svg version="1.1" id="Layer_1" xmlns="http://www.w3.org/2000/svg" xmlns:xlink="http://www.w3.org/1999/xlink" x="0px" y="0px"
	 viewBox="0 0 410 441" style="enable-background:new 0 0 410 441;" xml:space="preserve">
<style type="text/css">
	.st0{fill:#FFFFFF;}
</style>
<g>
	<g>
		<g>
			<g>
				<g>
					<path class="st0" d="M210,355.5c-0.9,0-1.7-0.2-2.5-0.7L133.4,312c-2.4-1.4-3.2-4.4-1.8-6.8s4.4-3.2,6.8-1.8l71.6,41.3
						l71.6-41.3c2.4-1.4,5.5-0.6,6.8,1.8c1.4,2.4,0.6,5.4-1.8,6.8l-74.1,42.8C211.7,355.3,210.9,355.5,210,355.5z"/>
				</g>
				<g>
					<path class="st0" d="M210,441c-2.8,0-5-2.2-5-5v-85.5c0-2.8,2.2-5,5-5s5,2.2,5,5V436C215,438.8,212.8,441,210,441z"/>
				</g>
				<g>
					<path class="st0" d="M210,441c-0.9,0-1.7-0.2-2.5-0.7l-74.1-42.8c-1.5-0.9-2.5-2.5-2.5-4.3v-85.5c0-1.8,1-3.4,2.5-4.3
						l74.1-42.8c1.5-0.9,3.5-0.9,5,0l74.1,42.8c1.5,0.9,2.5,2.5,2.5,4.3v85.5c0,1.8-1,3.4-2.5,4.3l-74.1,42.8
						C211.7,440.8,210.9,441,210,441z M140.9,390.4l69.1,39.9l69.1-39.9v-79.8L210,270.7l-69.1,39.9V390.4L140.9,390.4z"/>
				</g>
			</g>
			<g>
				<path class="st0" d="M320,90H100c-2.8,0-5-2.2-5-5V5c0-2.8,2.2-5,5-5h220c2.8,0,5,2.2,5,5v80C325,87.7,322.8,90,320,90z M105,80
					h210V10H105V80z"/>
			</g>
			<g>
				<path class="st0" d="M250,140h-80c-1,0-2.1-0.3-2.9-0.9l-70-50c-1.8-1.3-2.5-3.5-1.9-5.6c0.7-2.1,2.6-3.5,4.8-3.5h220
					c2.2,0,4.1,1.4,4.8,3.5s-0.1,4.3-1.9,5.6l-70,50C252.1,139.6,251,140,250,140z M171.6,130h76.8l56-40H115.6L171.6,130z"/>
			</g>
			<g>
				<path class="st0" d="M210,200c-1.1,0-2.1-0.3-3-1l-40-30c-1.3-0.9-2-2.4-2-4v-30c0-2.8,2.2-5,5-5h80c2.8,0,5,2.2,5,5v30
					c0,1.6-0.7,3.1-2,4l-40,30C212.1,199.6,211.1,200,210,200z M175,162.5l35,26.3l35-26.3V140h-70V162.5z"/>
			</g>
			<g>
				<path class="st0" d="M350,60h-30c-2.8,0-5-2.2-5-5V5c0-2.8,2.2-5,5-5h30c16.5,0,30,13.5,30,30S366.5,60,350,60z M325,50h25
					c11,0,20-9,20-20s-9-20-20-20h-25V50z"/>
			</g>
			<g>
				<path class="st0" d="M100,60H70c-16.5,0-30-13.5-30-30S53.5,0,70,0h30c2.8,0,5,2.2,5,5v50C105,57.7,102.8,60,100,60z M70,10
					c-11,0-20,9-20,20s9,20,20,20h25V10H70z"/>
			</g>
			<g>
				<path class="st0" d="M250,40H140c-2.8,0-5-2.2-5-5s2.2-5,5-5h110c2.8,0,5,2.2,5,5S252.8,40,250,40z"/>
			</g>
			<circle class="st0" cx="280" cy="35" r="10"/>
			<circle class="st0" cx="400" cy="105" r="10"/>
			<circle class="st0" cx="290" cy="215" r="10"/>
			<circle class="st0" cx="390" cy="325" r="10"/>
			<circle class="st0" cx="70" cy="355" r="10"/>
			<circle class="st0" cx="110" cy="175" r="10"/>
			<circle class="st0" cx="10" cy="95" r="10"/>
			<g>
				<path class="st0" d="M210,270c-2.8,0-5-2.2-5-5v-70c0-2.8,2.2-5,5-5s5,2.2,5,5v70C215,267.7,212.8,270,210,270z"/>
			</g>
			<g>
				<path class="st0" d="M50,270c-13.8,0-25-11.2-25-25s11.2-25,25-25s25,11.2,25,25C75,258.8,63.8,270,50,270z M50,230
					c-8.3,0-15,6.7-15,15s6.7,15,15,15s15-6.7,15-15S58.3,230,50,230z"/>
			</g>
			<g>
				<path class="st0" d="M370,220c-19.3,0-35-15.7-35-35s15.7-35,35-35s35,15.7,35,35S389.3,220,370,220z M370,160
					c-13.8,0-25,11.2-25,25s11.2,25,25,25s25-11.2,25-25S383.8,160,370,160z"/>
			</g>
		</g>
	</g>
</g>
</svg>
